<svg width="832" height="260" fill="none" xmlns="http://www.w3.org/2000/svg"><path d="M.418 215.227v-53.693L102.833.454h48.721v71.592h-27.841l-55.184 87.5v1.988h151.136v53.693H.418zM124.211 255v-56.179l1.491-23.366v-175h64.631V255h-66.122zm488.207-39.773v-53.693L714.833.454h48.721v71.592h-27.841l-55.184 87.5v1.988h151.136v53.693H612.418zM736.211 255v-56.179l1.491-23.366v-175h64.631V255h-66.122zM540 133.5c0 69.864-56.636 126.5-126.5 126.5S287 203.364 287 133.5 343.636 7 413.5 7 540 63.636 540 133.5z" fill="#222125"/><mask id="a" style="mask-type:alpha" maskUnits="userSpaceOnUse" x="287" y="7" width="253" height="253"><path d="M540 133.5c0 69.864-56.636 126.5-126.5 126.5S287 203.364 287 133.5 343.636 7 413.5 7 540 63.636 540 133.5z" fill="#fff"/></mask><g mask="url(#a)"><path d="M267 112h293v58H267v-58z" fill="#fff"/></g><path d="M535 112h20v58h-20v-58zm-268 0h27v58h-27v-58z" fill="#fff"/></svg>