<svg width="29" height="24" fill="none" xmlns="http://www.w3.org/2000/svg"><path d="M1 4.143C1 2.407 2.343 1 4 1h21c1.657 0 3 1.407 3 3.143v15.714C28 21.593 26.657 23 25 23H4c-1.657 0-3-1.407-3-3.143V4.143z" fill="#fff"/><path d="M1.573 4.894a1 1 0 00-1.146 1.64l1.146-1.64zm11.263 9.087l-.573.82.573-.82zm3.328 0l-.573-.82.573.82zm12.409-7.447a1 1 0 10-1.146-1.64l1.146 1.64zM4 2h21V0H4v2zm23 2.143v15.714h2V4.143h-2zM25 22H4v2h21v-2zM2 19.857V4.143H0v15.714h2zM4 22c-1.061 0-2-.915-2-2.143H0C0 22.101 1.748 24 4 24v-2zm23-2.143C27 21.085 26.061 22 25 22v2c2.253 0 4-1.9 4-4.143h-2zM25 2c1.061 0 2 .915 2 2.143h2C29 1.899 27.253 0 25 0v2zM4 0C1.748 0 0 1.9 0 4.143h2C2 2.915 2.939 2 4 2V0zM.427 6.534L12.263 14.8l1.146-1.64L1.572 4.895.427 6.534zm16.31 8.266l11.836-8.266-1.146-1.64-11.835 8.267 1.145 1.64zm-4.474 0a3.887 3.887 0 004.474 0l-1.145-1.64a1.887 1.887 0 01-2.184 0l-1.145 1.64z" fill="#e08735"/></svg>