<svg width="40" height="40" fill="none" xmlns="http://www.w3.org/2000/svg"><g clip-path="url(#clip0_733_1324)" fill="#E08735"><path d="M32.969 22.339H16.25a.781.781 0 110-1.563h16.719a5.419 5.419 0 003.967-1.71 5.425 5.425 0 001.493-4.058c-.15-2.807-2.47-5.076-5.281-5.166a5.434 5.434 0 00-4.445 2.047.763.763 0 00-.14.697c.07.244.249.433.489.517l.015.005c.31.108.653.005.872-.264a3.893 3.893 0 013.03-1.443c1.06 0 2.051.419 2.793 1.179a3.877 3.877 0 011.112 2.821c-.05 2.103-1.828 3.813-3.964 3.813H2.344a.775.775 0 00-.562.239.776.776 0 00-.219.571c.015.415.382.752.818.752h7.62a.781.781 0 010 1.563H2.38c-1.29 0-2.334-.992-2.38-2.26-.022-.642.21-1.25.656-1.711a2.324 2.324 0 011.687-.717H32.91c1.295 0 2.372-1.025 2.402-2.286a2.327 2.327 0 00-.667-1.694 2.337 2.337 0 00-3.494.16 2.364 2.364 0 01-2.598.753l-.015-.006a2.337 2.337 0 01-1.053-3.667 6.984 6.984 0 015.713-2.63c3.616.115 6.599 3.034 6.792 6.644a6.972 6.972 0 01-1.92 5.217 7.061 7.061 0 01-5.101 2.197zm-9.995 15.947a6.978 6.978 0 01-5.48-2.634 2.337 2.337 0 011.053-3.668l.015-.005a2.363 2.363 0 012.598.753 2.337 2.337 0 003.494.16 2.327 2.327 0 00.667-1.694c-.03-1.26-1.107-2.287-2.402-2.287H8.863c-.642 0-1.24-.254-1.687-.716a2.326 2.326 0 01-.655-1.712c.045-1.267 1.09-2.26 2.38-2.26h14.077c1.918 0 3.778.802 5.101 2.198A6.972 6.972 0 0130 31.638c-.193 3.61-3.176 6.529-6.792 6.645a7.848 7.848 0 01-.233.003zm-3.649-4.874a.754.754 0 00-.249.043l-.015.005a.764.764 0 00-.489.517.763.763 0 00.14.696 5.435 5.435 0 004.445 2.048c2.811-.09 5.131-2.36 5.282-5.167a5.425 5.425 0 00-1.494-4.058 5.419 5.419 0 00-3.967-1.71H8.9c-.436 0-.803.338-.818.752a.776.776 0 00.219.572.775.775 0 00.562.239h14.056c2.136 0 3.914 1.71 3.964 3.812a3.877 3.877 0 01-1.112 2.822 3.876 3.876 0 01-2.793 1.178 3.893 3.893 0 01-3.03-1.442.806.806 0 00-.623-.307z"/><path d="M18.004 15.776H5.8c-1.29 0-2.335-.992-2.38-2.259-.022-.642.21-1.25.656-1.712a2.325 2.325 0 011.687-.716h4.81a.781.781 0 010 1.562h-4.81a.775.775 0 00-.562.24.776.776 0 00-.219.57c.015.415.382.753.818.753h12.204a5.419 5.419 0 003.968-1.71 5.424 5.424 0 001.493-4.058c-.15-2.807-2.47-5.077-5.282-5.167a5.433 5.433 0 00-4.445 2.048.763.763 0 00-.14.696c.07.245.249.433.49.517l.014.006a.789.789 0 00.873-.265 3.893 3.893 0 013.029-1.442c1.06 0 2.052.418 2.794 1.178a3.877 3.877 0 011.111 2.822c-.05 2.102-1.828 3.813-3.964 3.813h-1.122a.781.781 0 010-1.563h1.122c1.295 0 2.372-1.026 2.402-2.287a2.327 2.327 0 00-.667-1.693 2.337 2.337 0 00-3.494.16 2.363 2.363 0 01-2.598.752l-.015-.005a2.337 2.337 0 01-1.053-3.667 6.977 6.977 0 015.713-2.631c3.616.116 6.6 3.034 6.792 6.645a6.973 6.973 0 01-1.92 5.216 7.062 7.062 0 01-5.101 2.197zm-4.879 6.564a.787.787 0 01-.552-.23.787.787 0 01-.23-.552.785.785 0 01.782-.781.784.784 0 01.781.78.787.787 0 01-.229.553.787.787 0 01-.552.23z"/><path d="M13.698 12.652a.787.787 0 01-.553-.23.787.787 0 01-.229-.552.785.785 0 01.782-.78.783.783 0 01.781.78.784.784 0 01-.781.782z"/></g><defs><clipPath id="clip0_733_1324"><path fill="#fff" d="M0 0h40v40H0z"/></clipPath></defs></svg>