<svg width="40" height="40" fill="none" xmlns="http://www.w3.org/2000/svg"><g clip-path="url(#clip0_733_1262)" fill-rule="evenodd" clip-rule="evenodd" fill="#E08735"><path d="M39.941 36.849l-6.375-15.662a.797.797 0 10-1.476.6l5.929 14.565H1.98l.59-1.447a.797.797 0 10-1.476-.601L.059 36.849a.797.797 0 00.738 1.097h38.406a.797.797 0 00.738-1.097zM3.936 29.437a.795.795 0 001.038-.438l6.107-15.005h17.837l.769 1.888a.797.797 0 101.476-.6l-.97-2.385a.797.797 0 00-.739-.496h-3.632a6.754 6.754 0 00.988-3.537A6.817 6.817 0 0020 2.054a6.817 6.817 0 00-6.81 6.81c0 1.27.344 2.483.988 3.537h-3.633a.797.797 0 00-.738.496L3.498 28.4a.797.797 0 00.438 1.038zM14.784 8.864A5.222 5.222 0 0120 3.648a5.222 5.222 0 015.216 5.216 5.167 5.167 0 01-1.383 3.537h-7.667a5.167 5.167 0 01-1.382-3.537z"/><path d="M25.505 21.342c.676 0 1.319.17 1.912.507a.797.797 0 00.785-1.387 5.48 5.48 0 00-2.697-.713c-3.124 0-5.667 2.66-5.667 5.928 0 3.269 2.543 5.928 5.667 5.928a5.48 5.48 0 002.698-.713.797.797 0 00.403-.694v-2.931a.797.797 0 00-.797-.797h-2.092a.797.797 0 000 1.594h1.296v1.641a3.816 3.816 0 01-1.508.307c-2.246 0-4.073-1.945-4.073-4.335 0-2.39 1.827-4.335 4.073-4.335zm-7.381-1.401a.797.797 0 00-1.123.086l-3.697 4.304a.757.757 0 00-.024.03l-.293.34v-4.155a.797.797 0 00-1.593 0v10.262a.797.797 0 001.593 0v-3.66l.808-.941 3.134 5.023a.796.796 0 101.352-.843l-3.398-5.447 3.327-3.875a.797.797 0 00-.086-1.124zM3.034 32.448a.798.798 0 00.797-.796.798.798 0 00-.797-.797.798.798 0 00-.797.797c0 .438.358.796.797.796zM30.83 18.534c0 .44.358.797.797.797a.798.798 0 00.797-.797.798.798 0 00-.797-.796.798.798 0 00-.797.796z"/></g><defs><clipPath id="clip0_733_1262"><path fill="#fff" d="M0 0h40v40H0z"/></clipPath></defs></svg>