<svg width="40" height="40" fill="none" xmlns="http://www.w3.org/2000/svg"><g clip-path="url(#clip0_733_1343)" fill="#E08735"><path d="M36.517 7.04A7.545 7.545 0 0130.148.67a.781.781 0 00-.773-.67h-18.75a.781.781 0 00-.773.67 7.545 7.545 0 01-6.369 6.37.781.781 0 00-.67.772v2.198c0 11.996 6.427 23.96 16.8 29.887a.78.78 0 00.775 0c9.789-5.594 16.8-17.144 16.8-29.887V7.813a.781.781 0 00-.671-.774zm-.892 2.97c0 11.615-6.119 22.672-15.625 28.305-9.506-5.633-15.625-16.69-15.625-28.305V8.465a9.066 9.066 0 006.902-6.902h17.446a9.066 9.066 0 006.902 6.902v1.545z"/><path d="M26.708 5.113a.781.781 0 00-.696-.426H13.988a.781.781 0 00-.695.427 12.406 12.406 0 01-5.344 5.354.781.781 0 00-.424.728c.373 8.969 4.926 18.042 12.01 23.094a.782.782 0 00.92.011c6.573-4.664 11.628-13.414 12.022-23.106a.781.781 0 00-.424-.727 12.407 12.407 0 01-5.345-5.355zM20.78 32.08v-9.345a.781.781 0 10-1.562 0v9.346C13.469 27.356 9.58 19.536 9.11 11.617a14.003 14.003 0 005.346-5.367h4.762v9.453a.781.781 0 001.562 0V6.25h4.763a14.007 14.007 0 005.348 5.368c-.54 9.418-5.51 16.647-10.11 20.461z"/><path d="M20 20a.781.781 0 100-1.562A.781.781 0 0020 20z"/></g><defs><clipPath id="clip0_733_1343"><path fill="#fff" d="M0 0h40v40H0z"/></clipPath></defs></svg>