<svg width="28" height="22" fill="none" xmlns="http://www.w3.org/2000/svg"><path d="M1.326 3.967a2.825 2.825 0 012.816-2.834h19.715a2.825 2.825 0 012.816 2.834v14.169a2.825 2.825 0 01-2.816 2.833H4.142a2.825 2.825 0 01-2.816-2.833V3.966z" fill="#fff"/><path d="M1.883 4.553A1 1 0 10.77 6.213l1.114-1.66zm10.554 8.284l-.557.83.557-.83zm3.125 0l-.557-.83.557.83zM27.23 6.214a1 1 0 00-1.114-1.661l1.114 1.66zM4.143 2.133h19.714v-2H4.142v2zm21.53 1.834v14.169h2V3.966h-2zm-1.816 16.002H4.142v2h19.715v-2zm-21.53-1.833V3.966h-2v14.17h2zm1.816 1.833a1.825 1.825 0 01-1.817-1.833h-2c0 2.111 1.703 3.833 3.817 3.833v-2zm21.53-1.833a1.825 1.825 0 01-1.816 1.833v2c2.113 0 3.816-1.722 3.816-3.833h-2zM23.857 2.133c.997 0 1.816.815 1.816 1.834h2c0-2.112-1.703-3.834-3.816-3.834v2zm-19.715-2C2.03.133.326 1.855.326 3.967h2c0-1.02.82-1.834 1.817-1.834v-2zM.77 6.213l11.111 7.454 1.114-1.66-11.11-7.454L.77 6.213zm15.35 7.454l11.11-7.453-1.114-1.661-11.111 7.454 1.114 1.66zm-4.239 0a3.801 3.801 0 004.239 0l-1.114-1.66a1.802 1.802 0 01-2.01 0l-1.115 1.66z" fill="#E08735"/></svg>