<svg width="40" height="40" fill="none" xmlns="http://www.w3.org/2000/svg"><path d="M39.886 27.428c-.349-1.097-1.565-2.067-3.411-1.604a.422.422 0 00-.013.003l-7.714 2.08a2.464 2.464 0 00-2.703-1.887c-.446.055-1.954.27-3.55.496-1.523.217-3.099.44-3.532.494-.953.119-2.222.019-3.566-.088-.474-.037-.965-.076-1.466-.108a.781.781 0 00-.098 1.56c.489.03.973.07 1.44.106 1.426.113 2.772.219 3.883.081.446-.055 1.958-.27 3.559-.498 1.52-.216 3.09-.439 3.522-.493a.9.9 0 011.004.776c.02.154.07.565-1.01 1.06-2.222 1.019-4.59 1.891-6.497 2.393a.781.781 0 00.398 1.51c1.99-.523 4.45-1.428 6.75-2.482.8-.367 1.287-.794 1.572-1.223l8.407-2.267c.926-.23 1.401.14 1.536.564.13.409-.033.935-.69 1.191-.654.247-2.22.928-4.201 1.79-2.628 1.143-5.899 2.566-8.508 3.612-3.208 1.286-4.12 1.458-7.515 1.421l-5.348-.059h-.009a.782.782 0 00-.695.424l-.734 1.428a.794.794 0 00-.06.155c-.108.405-.244.574-.81.574H1.966c-.085 0-.177-.053-.252-.145-.064-.078-.204-.3-.128-.662.94-4.491 2.795-7.274 5.668-8.506a.781.781 0 10-.616-1.436c-3.377 1.448-5.53 4.595-6.583 9.622-.15.718.012 1.435.445 1.968.373.46.907.723 1.465.723h7.863c1.182 0 1.974-.569 2.295-1.646l.477-.93 4.866.054c3.588.04 4.726-.176 8.114-1.534 2.63-1.055 5.912-2.482 8.549-3.63 1.887-.82 3.518-1.53 4.132-1.761l.008-.003c1.525-.59 1.968-2.018 1.617-3.122zM16.875 9.597a2.346 2.346 0 002.344-2.344 2.346 2.346 0 00-2.344-2.344 2.346 2.346 0 00-2.343 2.344 2.346 2.346 0 002.343 2.344zm0-3.125a.782.782 0 11-.001 1.564.782.782 0 01.002-1.564zm3.907 7.031a2.346 2.346 0 002.343 2.344 2.346 2.346 0 002.344-2.344 2.346 2.346 0 00-2.344-2.344 2.346 2.346 0 00-2.343 2.344zm3.125 0a.782.782 0 11-1.564-.001.782.782 0 011.564.001zm-7.003 2.239a.778.778 0 001.067-.286l5.413-9.375a.781.781 0 10-1.353-.78l-5.413 9.374a.781.781 0 00.286 1.067z" fill="#E08735"/><path d="M9.408 15.49l9.38 9.449c.323.324.752.504 1.21.505h.004c.456 0 .885-.177 1.211-.502l9.45-9.52A1.714 1.714 0 0029.45 12.5h-.854V2.344A2.346 2.346 0 0026.25 0h-12.5a2.346 2.346 0 00-2.344 2.344V12.5h-.851a1.717 1.717 0 00-1.148 2.99zm1.148-1.428h1.632c.432 0 .782-.35.782-.78V2.343c0-.431.35-.782.78-.782h12.5c.432 0 .782.351.782.782V13.28c0 .432.35.781.781.781h1.636a.15.15 0 01.105.047.15.15 0 01.001.212l-9.447 9.517a.147.147 0 01-.106.043.146.146 0 01-.105-.043l-9.398-9.467a.821.821 0 00-.043-.04.153.153 0 01.1-.268zm-.19 12.75a.781.781 0 100 1.562.781.781 0 000-1.562z" fill="#E08735"/></svg>