<svg width="40" height="40" fill="none" xmlns="http://www.w3.org/2000/svg"><g clip-path="url(#clip0_733_1274)" fill="#E08735"><path d="M37.987 13.333c-.357 0-.8.018-1.296.051l-.744-2.606A28.87 28.87 0 0138 10.667a2 2 0 000-4c-.556 0-13.681.082-19.548 7.252C13.438 20.047 6.738 21.333 2 21.333a2 2 0 000 4c.233 0 .475-.007.715-.012l.755 2.642C2.983 27.985 2.494 28 2 28a2 2 0 100 4c9.957 0 18.733-4.023 24.708-11.327 1.733-2.116 7.783-3.318 11.305-3.34a2 2 0 00-.026-4zm-2.649.172c-.773.083-1.62.2-2.507.364l-.733-2.568a37.39 37.39 0 012.5-.385l.74 2.589zM19.257 22.37l-.79-2.781a24.006 24.006 0 002.05-1.958l.84 2.933a26.243 26.243 0 01-2.1 1.807zM8.662 27.274l-.729-2.551c.8-.17 1.608-.378 2.426-.638l.728 2.536c-.792.253-1.6.47-2.425.653zm3.686-1.091l-.73-2.534a23.554 23.554 0 002.32-1.031l.739 2.571c-.758.363-1.534.694-2.329.994zm3.537-1.618l-.748-2.606c.76-.446 1.495-.936 2.2-1.466l.772 2.711c-.718.493-1.462.942-2.224 1.36zm6.546-5.084l-.872-3.042a10.564 10.564 0 012.074-1.901l.792 2.776c-.293.253-.565.53-.813.826-.38.464-.776.908-1.181 1.341zm3.133-3.025l-.76-2.667c.742-.416 1.512-.78 2.304-1.088l.733 2.572a14.02 14.02 0 00-2.274 1.183h-.003zm3.533-1.641l-.733-2.564a28.03 28.03 0 012.423-.674l.733 2.564c-.806.184-1.622.406-2.42.674h-.003zM1.333 23.333c0-.368.299-.666.667-.666 5.026 0 12.14-1.372 17.484-7.904C24.954 8.077 37.47 8 38 8a.667.667 0 110 1.333 37.461 37.461 0 00-6.92.819h-.005a29.571 29.571 0 00-3.682 1.03h-.023c-.008 0-.03.018-.046.024-2.593.93-5.107 2.318-6.809 4.4C14.841 22.544 7.315 24 2 24a.667.667 0 01-.667-.667zm2.75 1.926a28.08 28.08 0 002.534-.289l.733 2.563c-.827.145-1.667.256-2.52.333l-.747-2.607zM38.475 15.8a.663.663 0 01-.47.2c-2.896.018-10.021 1.007-12.329 3.83C19.958 26.817 11.549 30.666 2 30.666a.667.667 0 010-1.334c.781 0 1.552-.036 2.317-.09.008 0 .014.004.022.004a.711.711 0 00.085-.012 31.532 31.532 0 003.95-.533 29.59 29.59 0 003.681-.995c.011 0 .022 0 .033-.005.01-.005.029-.017.045-.023a27.862 27.862 0 007.182-3.701 27.765 27.765 0 005.326-4.992c2.634-3.217 10.134-4.3 13.359-4.32a.666.666 0 01.475 1.134z"/><path d="M9.333 0H6.667C5.93 0 5.333.597 5.333 1.333V12H3.901a1.233 1.233 0 00-.957 2.01l4.083 4.847c.232.302.592.478.973.476.372.004.725-.165.957-.456l4.116-4.886A1.233 1.233 0 0012.099 12h-1.432V1.333C10.667.597 10.07 0 9.333 0zm2.55 13.333L8 17.945l-3.884-4.612h1.317c.681 0 1.233-.552 1.234-1.233V1.333h2.666V12.1c.001.68.553 1.233 1.234 1.233h1.316zm21.091 7.81a1.281 1.281 0 00-1.933-.02l-4.116 4.886A1.233 1.233 0 0027.901 28h1.432v10.667c0 .736.597 1.333 1.334 1.333h2.666c.737 0 1.334-.597 1.334-1.333V28h1.432a1.233 1.233 0 00.957-2.01l-4.082-4.847zm1.593 5.524c-.681 0-1.233.552-1.234 1.233v10.767h-2.666V27.9a1.235 1.235 0 00-1.234-1.233h-1.316L32 22.055l3.884 4.612h-1.317z"/></g><defs><clipPath id="clip0_733_1274"><path fill="#fff" d="M0 0h40v40H0z"/></clipPath></defs></svg>