<svg width="40" height="40" fill="none" xmlns="http://www.w3.org/2000/svg"><path d="M29.675 32.886a.781.781 0 00-1.084-.21l-.025.017a.781.781 0 10.875 1.294l.025-.016a.781.781 0 00.21-1.085zm-.987-8.76a.781.781 0 00-1.085-.21l-.024.017a.781.781 0 00.875 1.295l.024-.017a.781.781 0 00.21-1.085zm-17.042-17.9a.781.781 0 00-1.083-.217l-.032.021a.781.781 0 10.881 1.29l.018-.011a.781.781 0 00.216-1.083z" fill="#E08735"/><path d="M40 20a19.87 19.87 0 00-5.858-14.142A19.87 19.87 0 0020 0 19.88 19.88 0 008.273 3.799a.781.781 0 00.916 1.266A18.326 18.326 0 0120 1.562c10.166 0 18.438 8.272 18.438 18.438 0 4.663-1.721 9.062-4.86 12.472l-1.107-1.106a16.865 16.865 0 003.943-7.45 16.765 16.765 0 00-2.038-12.755 16.765 16.765 0 00-10.46-7.577A16.91 16.91 0 0012.544 4.86a.781.781 0 00.69 1.402 15.345 15.345 0 0110.321-1.158c8.213 1.96 13.3 10.236 11.34 18.448a15.303 15.303 0 01-3.53 6.707l-5.638-5.638c.014-.217.022-.439.022-.669 0-.17-.009-.348-.025-.527l-.007-.081-.002-.082c-.049-2.371-.818-4.855-2.421-7.815a41.756 41.756 0 00-.813-1.425.783.783 0 00-1.39.09c-.703 1.63-1.123 3.028-1.333 4.54l-1.035-1.035a.775.775 0 00.017-.171c-.002-.059-.06-5.518 3.4-7.733.24.472.584 1.037 1.008 1.733 1.608 2.642 4.037 6.635 4.13 11.132a.781.781 0 001.562-.032c-.102-4.918-2.766-9.296-4.357-11.912-.546-.896-1.11-1.823-1.167-2.157a.782.782 0 00-1.088-.581c-3.81 1.698-4.75 6-4.979 8.218-1.117-1.079-1.061-2.824-1.057-2.912a.781.781 0 00-1.394-.522c-.15.19-.295.384-.434.579L4.034 2.928A.782.782 0 002.93 4.034l2.388 2.388a19.887 19.887 0 00-3.795 5.924A19.901 19.901 0 000 20c0 5.342 2.08 10.365 5.858 14.142A19.869 19.869 0 0020 40c4.239 0 8.294-1.314 11.727-3.799a.781.781 0 00-.916-1.266A18.325 18.325 0 0120 38.437C9.834 38.438 1.562 30.168 1.562 20c0-4.663 1.721-9.062 4.86-12.473L7.53 8.634a16.866 16.866 0 00-3.943 7.45 16.765 16.765 0 002.038 12.754 16.764 16.764 0 0010.46 7.577 16.907 16.907 0 0011.374-1.276.781.781 0 10-.692-1.402 15.344 15.344 0 01-10.32 1.158c-8.213-1.96-13.3-10.236-11.34-18.448a15.302 15.302 0 013.53-6.706l4.87 4.87c-2.03 3.604-2.312 7.35-2.343 7.894a9.014 9.014 0 00-.036.794c0 2.385.914 4.616 2.574 6.281 1.666 1.672 3.902 2.592 6.299 2.592 3.388 0 6.01-1.261 7.493-3.574l5.544 5.544 2.929 2.928a.78.78 0 001.105 0 .781.781 0 000-1.104l-2.388-2.388a19.888 19.888 0 003.794-5.924A19.9 19.9 0 0040 20zm-18.059-3.767c1.386 2.568 2.106 4.797 2.2 6.804l-2.953-2.954c.082-1.366.315-2.564.753-3.85zM20 30.61c-4.1 0-7.31-3.212-7.31-7.31a7.41 7.41 0 01.033-.697c.023-.428.25-3.649 1.933-6.842l4.941 4.941v.016c-1.396.05-1.682-.192-2.224-.648-.323-.272-.725-.611-1.372-.977a.781.781 0 00-1.135.465c-.303 1.056-.527 2.737-.583 3.782l-.006.085a5.884 5.884 0 00-.025.527c0 2.488 1.564 4.679 3.892 5.451a.781.781 0 00.492-1.483c-1.714-.569-2.821-2.126-2.821-3.968 0-.125.006-.255.018-.385l.005-.056.002-.03.003-.056c.035-.65.14-1.557.285-2.36l.238.2c.893.751 1.521 1.168 4.06.968a.78.78 0 00.486-.216l3.18 3.18c-.305 1.878-1.322 2.44-2.226 2.708-.225.066-.471.12-.732.157a.781.781 0 00.224 1.546c.334-.048.654-.117.95-.205 1.536-.454 2.561-1.433 3.069-2.922l.978.979c-1.159 2.063-3.345 3.15-6.355 3.15z" fill="#E08735"/></svg>