<svg width="31" height="31" fill="none" xmlns="http://www.w3.org/2000/svg"><path d="M13.4 21.3a.6.6 0 100-1.2.6.6 0 000 1.2zm0 2.4a.6.6 0 100-1.2.6.6 0 000 1.2zm0 2.5a.6.6 0 100-1.3.6.6 0 000 1.3zm0 2.4a.6.6 0 100-1.2.6.6 0 000 1.2zm17-3.6a.6.6 0 100-1.3.6.6 0 000 1.2z" fill="#E08735"/><path d="M30.8 17.8l-2.3-1.7-1.1-12c0-.2-.3-.5-.6-.5h-.6V3a3 3 0 00-5.5-1.7A2.4 2.4 0 0018 2.4a2.4 2.4 0 00-1.7.5 3 3 0 00-4.7 2.5 3 3 0 004 3c.3.7 1.2 1.3 2 1.3 1 0 2-.6 2.3-1.5a4.3 4.3 0 003.5-.3l-.7 7.5-1.6-1.2a.6.6 0 00-1 .5V17l-3.9-3a.6.6 0 00-1 .6V17L14 16v-4c0-1-.8-1.8-1.8-1.8H7c-1 0-1.8.8-1.8 1.8v1a3 3 0 00-2.4 3v6.6H.6c-.3 0-.6.3-.6.6v7.3c0 .3.3.6.6.6h29.8c.3 0 .6-.3.6-.6V27a.6.6 0 00-1.2 0v2.7H11.6v-14l3.9 3a.6.6 0 001-.5v-2.4l3.8 2.9a.6.6 0 001-.5v-2.4l3.9 2.9a.6.6 0 001-.5v-2.4l3.6 2.7v3a.6.6 0 101.2 0v-3.3c0-.2 0-.4-.2-.5zM4 15.8a1.8 1.8 0 013.6 0v6.7H4V16zm3.6 14H4v-3.6h3.6v3.6zm2.8 0H8.8v-4.2c0-.4-.2-.7-.6-.7H3.4c-.3 0-.6.3-.6.7v4.2H1.2v-6h9.2v6zm2.4-14.5l-1.4-1.1c-.4-.3-1 0-1 .5v7.8H8.8V16a3 3 0 00-2.4-3v-1c0-.4.3-.6.6-.6h5.2c.4 0 .6.2.6.6v3.4zm13.9-5.6h-2.3l.1-1.2h2l.2 1.2zm-.5-4.9l.2 2.5h-1.7l.2-2.5h1.3zm-2.6 1.3c-.4.7-1.3 1.2-2.3 1.2a3 3 0 01-1.2-.3 2.4 2.4 0 00-2.4-2.2.6.6 0 000 1.3c.7 0 1.2.6 1.2 1.2a1.2 1.2 0 01-2.4 0 .6.6 0 00-1.2-.1 1.8 1.8 0 11.6-3 .6.6 0 00.9-.1 1.2 1.2 0 011.3-.4c.4.1.7 0 .8-.4a1.2 1.2 0 012.4.3.6.6 0 001.2 0c0-.7-.3-1.3-.8-1.7.4-.4.9-.7 1.4-.7 1 0 1.8.8 1.8 1.8v.6h-.6c-.3 0-.5.3-.6.6l-.1 2zm2.3 8a.6.6 0 00-1 .6V17l-1-.9.4-5.3h2.5l.4 4.2-1.3-1z" fill="#E08735"/></svg>