<svg width="40" height="40" fill="none" xmlns="http://www.w3.org/2000/svg"><path d="M38.82 16l-4.851-4.852.307-.308a3.617 3.617 0 000-5.119 3.618 3.618 0 00-5.118 0l-.308.308-4.852-4.852a4.03 4.03 0 00-5.692 0l-6.122 6.121a4.03 4.03 0 000 5.693l4.852 4.852L1.061 33.818a3.618 3.618 0 000 5.119 3.624 3.624 0 005.118 0L22.155 22.96l4.852 4.852a4.03 4.03 0 005.692 0l6.121-6.122a4.023 4.023 0 000-5.692zm-23.926-2.51l9.604-9.604L36.11 15.5l-9.604 9.604L14.894 13.49zm15.368-6.665a2.056 2.056 0 112.91 2.91l-.308.307-2.91-2.91.308-.307zM13.29 8.403l6.122-6.121a2.461 2.461 0 013.482 0l.5.5-9.603 9.604-.5-.5a2.465 2.465 0 010-3.483zM2.166 37.833a2.056 2.056 0 010-2.91l.88-.881 2.91 2.909-.881.881a2.056 2.056 0 01-2.91 0zm4.895-1.987l-2.91-2.909 13.99-13.99 2.91 2.91-13.99 13.99zm30.654-15.26l-6.121 6.122a2.461 2.461 0 01-3.482 0l-.5-.5 9.603-9.604.5.5a2.46 2.46 0 010 3.483z" fill="#E08735"/></svg>