<svg width="40" height="40" fill="none" xmlns="http://www.w3.org/2000/svg"><g clip-path="url(#clip0_733_1283)" fill="#E08735"><path d="M14.86 15.82a.781.781 0 00-1.077-.247l-3.377 2.12a.781.781 0 10.83 1.323l3.378-2.12a.781.781 0 00.246-1.077zm-5.277 3.314a.781.781 0 00-1.077-.248l-.016.01a.781.781 0 00.83 1.324l.015-.01a.781.781 0 00.248-1.076z"/><path d="M39.867.345a.781.781 0 00-.999-.262L15.742 11.696a.781.781 0 00-.017 1.388l4.556 2.422L9.888 22.03a.781.781 0 00.049 1.351l5.062 2.69L.275 38.625a.781.781 0 00.886 1.278l23.748-13.178a.781.781 0 00-.013-1.373l-4.627-2.46 10.794-6.948a.781.781 0 00-.061-1.35l-3.996-2.084L39.733 1.37a.781.781 0 00.134-1.024zm-14.75 11.74a.781.781 0 00.154 1.28l3.816 1.992-10.784 6.942a.781.781 0 00.056 1.347l4.534 2.41-15.66 8.69 9.653-8.23a.781.781 0 00-.14-1.285l-4.884-2.596 10.394-6.524a.782.782 0 00-.05-1.352l-4.412-2.345 16.3-8.185-8.976 7.856zm4.514 15.055a.781.781 0 00-1.062-.302l-.017.009a.781.781 0 10.76 1.365l.016-.009a.781.781 0 00.303-1.062zm-1.979 1.1a.781.781 0 00-1.062-.305l-3.486 1.935a.781.781 0 10.758 1.366l3.486-1.935a.781.781 0 00.305-1.062z"/></g><defs><clipPath id="clip0_733_1283"><path fill="#fff" d="M0 0h40v40H0z"/></clipPath></defs></svg>