<svg width="40" height="40" fill="none" xmlns="http://www.w3.org/2000/svg"><path d="M20 40a19.87 19.87 0 01-14.142-5.858A19.87 19.87 0 010 20 19.87 19.87 0 015.858 5.858a20.009 20.009 0 0125.8-2.113.781.781 0 11-.913 1.269C23.385-.277 13.383.542 6.963 6.963c-7.19 7.189-7.19 18.886 0 26.074 7.189 7.19 18.886 7.19 26.074 0 6.42-6.42 7.24-16.422 1.95-23.782a.781.781 0 111.268-.912 20.01 20.01 0 013.686 13.195 20 20 0 01-5.799 12.604A19.869 19.869 0 0120 40z" fill="#E08735"/><path d="M20 36.406c-9.047 0-16.406-7.36-16.406-16.406 0-9.047 7.36-16.406 16.406-16.406S36.406 10.954 36.406 20 29.046 36.406 20 36.406zm0-31.25C11.815 5.156 5.156 11.815 5.156 20c0 8.185 6.659 14.843 14.844 14.843 8.185 0 14.843-6.658 14.843-14.843 0-8.185-6.658-14.844-14.843-14.844z" fill="#E08735"/><path d="M14.878 16.333a2.544 2.544 0 01-2.541-2.541 2.544 2.544 0 012.541-2.542 2.544 2.544 0 012.542 2.541 2.544 2.544 0 01-2.542 2.542zm0-3.52a.98.98 0 000 1.957.98.98 0 000-1.957zM23.64 28.75h-1.642a4.028 4.028 0 01-4.023-4.024v-6.64a4.028 4.028 0 014.023-4.024h1.642a4.028 4.028 0 014.023 4.023v.079a.781.781 0 11-1.563 0v-.079a2.463 2.463 0 00-2.46-2.46h-1.642a2.463 2.463 0 00-2.46 2.46v6.641a2.463 2.463 0 002.46 2.461h1.642a2.463 2.463 0 002.46-2.46.781.781 0 011.563 0 4.028 4.028 0 01-4.023 4.023zm9.949-21.558a.789.789 0 01-.553-.229.787.787 0 01-.228-.552.79.79 0 01.228-.553.787.787 0 01.553-.228.79.79 0 01.553.228.787.787 0 01.229.553.787.787 0 01-.229.552.79.79 0 01-.553.229z" fill="#E08735"/></svg>