<svg width="40" height="40" fill="none" xmlns="http://www.w3.org/2000/svg"><g clip-path="url(#clip0_733_1250)" fill="#E08735"><path d="M34.766 12.64c1.12 0 2.03-.911 2.03-2.031v-5.57c0-1.12-.91-2.031-2.03-2.031h-2.422V1.582C32.344.71 31.634 0 30.762 0h-1.293c-.873 0-1.582.71-1.582 1.582v1.426H24.18a.586.586 0 000 1.172h3.707v7.288H13.129V4.18h8.863a.586.586 0 000-1.172H13.13V1.582A1.586 1.586 0 0011.547 0h-1.293c-.872 0-1.582.71-1.582 1.582v1.426H5.156c-1.12 0-2.031.911-2.031 2.031v5.57c0 1.12.911 2.031 2.031 2.031h3.516v2.544H5.156c-1.12 0-2.031.911-2.031 2.031v5.57c0 1.12.911 2.031 2.031 2.031h3.516v2.544H5.156c-1.12 0-2.031.911-2.031 2.031v1.39a.586.586 0 001.172 0v-1.39a.86.86 0 01.86-.86h3.515v7.29H5.156a.86.86 0 01-.86-.86v-1.992a.586.586 0 00-1.171 0v1.992c0 1.12.911 2.031 2.031 2.031h3.516v1.426c0 .872.71 1.582 1.582 1.582h1.293c.872 0 1.582-.71 1.582-1.582v-1.426h14.758v1.426c0 .872.71 1.582 1.582 1.582h1.293c.872 0 1.582-.71 1.582-1.582v-1.426h2.422c1.12 0 2.03-.911 2.03-2.031v-5.57c0-1.12-.91-2.031-2.03-2.031h-2.422v-2.544h2.422c1.12 0 2.03-.911 2.03-2.031v-5.57c0-1.12-.91-2.031-2.03-2.031h-2.422V12.64h2.422zm0-8.46a.86.86 0 01.859.86v5.569a.86.86 0 01-.86.86h-2.421v-7.29h2.422zm-6.88 19.464H13.13v-7.288h14.758v7.288zM13.13 24.816h14.758v2.544H13.129v-2.544zM27.887 12.64v2.544H13.129V12.64h14.758zm-22.73-1.172a.86.86 0 01-.86-.86V5.04a.86.86 0 01.86-.86h3.515v7.29H5.156zm0 12.176a.86.86 0 01-.86-.86v-5.569a.86.86 0 01.86-.86h3.515v7.29H5.156zm6.8 14.774a.41.41 0 01-.41.41h-1.293a.41.41 0 01-.41-.41V1.582a.41.41 0 01.41-.41h1.293a.41.41 0 01.41.41v36.836zm1.172-2.598v-7.288h14.758v7.288H13.129zm18.043 2.598a.41.41 0 01-.41.41h-1.293a.41.41 0 01-.41-.41V1.582a.41.41 0 01.41-.41h1.293a.41.41 0 01.41.41v36.836zm3.594-9.886a.86.86 0 01.859.86v5.569a.86.86 0 01-.86.86h-2.421v-7.29h2.422zm0-12.176a.86.86 0 01.859.86v5.569a.86.86 0 01-.86.86h-2.421v-7.29h2.422z"/><path d="M33.666 9.054a.586.586 0 00.586-.586V7.18a.586.586 0 00-1.172 0v1.288c0 .323.262.586.586.586zm0 12.176a.586.586 0 00.586-.586v-1.288a.586.586 0 10-1.172 0v1.288c0 .323.262.586.586.586zm0 12.176a.586.586 0 00.586-.586v-1.288a.586.586 0 00-1.172 0v1.288c0 .323.262.586.586.586zM6.256 6.594a.586.586 0 00-.586.586v1.288a.586.586 0 001.172 0V7.18a.586.586 0 00-.586-.586zm0 12.176a.586.586 0 00-.586.586v1.288a.586.586 0 101.172 0v-1.288a.586.586 0 00-.586-.586zm.586 14.05v-1.288a.586.586 0 10-1.172 0v1.288a.586.586 0 001.172 0z"/></g><defs><clipPath id="clip0_733_1250"><path fill="#fff" d="M0 0h40v40H0z"/></clipPath></defs></svg>