<?xml version="1.0" encoding="utf-8"?><svg xmlns="http://www.w3.org/2000/svg" xmlns:xlink="http://www.w3.org/1999/xlink"><symbol viewBox="0 0 24 13" id="arrow" xmlns="http://www.w3.org/2000/svg"><path d="M17.5 13L24 6.5 17.5 0l-.707.707L22.086 6H0v1h22.086l-5.293 5.293.707.707z"/></symbol><symbol viewBox="0 0 18 15" id="mail" xmlns="http://www.w3.org/2000/svg"><path d="M1.555 3.112a1 1 0 00-1.11 1.665l1.11-1.665zM8.014 8.62l-.555.832.555-.832zm1.972 0l-.555-.832.555.832zm7.569-3.843a1 1 0 00-1.11-1.665l1.11 1.665zm-14.777-2.5h12.444v-2H2.778v2zM16 3.057v8.889h2v-8.89h-2zm-.778 9.666H2.778v2h12.444v-2zM2 11.945v-8.89H0v8.89h2zm.778.777A.778.778 0 012 11.945H0a2.778 2.778 0 002.778 2.777v-2zM16 11.945c0 .43-.348.777-.778.777v2A2.778 2.778 0 0018 11.945h-2zm-.778-9.667c.43 0 .778.348.778.778h2A2.778 2.778 0 0015.222.278v2zm-12.444-2A2.778 2.778 0 000 3.056h2c0-.43.348-.778.778-.778v-2zM.445 4.777L7.46 9.452l1.11-1.664-7.014-4.676-1.11 1.665zm10.096 4.675l7.014-4.675-1.11-1.665-7.014 4.676 1.11 1.664zm-3.082 0a2.778 2.778 0 003.082 0L9.43 7.788a.778.778 0 01-.862 0l-1.11 1.664z"/></symbol><symbol viewBox="0 0 16 15" id="phone" xmlns="http://www.w3.org/2000/svg"><path d="M1 2.056C1 1.196 1.696.5 2.556.5h2.55c.335 0 .632.214.738.532l1.165 3.495a.778.778 0 01-.39.941l-1.756.878a8.588 8.588 0 004.29 4.29l.879-1.755a.778.778 0 01.941-.39l3.495 1.165a.778.778 0 01.532.738v2.55c0 .86-.696 1.556-1.556 1.556h-.777C6.223 14.5 1 9.277 1 2.833v-.777z"/></symbol><symbol viewBox="0 0 32 32" id="success" xmlns="http://www.w3.org/2000/svg"><path d="M27 9L13 23l-7-7"/></symbol><symbol viewBox="0 0 24 24" id="up" xmlns="http://www.w3.org/2000/svg"><path d="M4 15l8-8 8 8-2 2-6-6-6 6z" fill-rule="evenodd"/></symbol></svg>