<?xml version="1.0" encoding="utf-8"?><svg xmlns="http://www.w3.org/2000/svg" xmlns:xlink="http://www.w3.org/1999/xlink"><symbol viewBox="0 0 24 13" id="arrow" xmlns="http://www.w3.org/2000/svg"><path d="M17.5 13L24 6.5 17.5 0l-.707.707L22.086 6H0v1h22.086l-5.293 5.293.707.707z"/></symbol><symbol viewBox="0 0 18 15" id="mail" xmlns="http://www.w3.org/2000/svg"><path d="M1.555 3.112a1 1 0 00-1.11 1.665l1.11-1.665zM8.014 8.62l-.555.832.555-.832zm1.972 0l-.555-.832.555.832zm7.569-3.843a1 1 0 00-1.11-1.665l1.11 1.665zm-14.777-2.5h12.444v-2H2.778v2zM16 3.057v8.889h2v-8.89h-2zm-.778 9.666H2.778v2h12.444v-2zM2 11.945v-8.89H0v8.89h2zm.778.777A.778.778 0 012 11.945H0a2.778 2.778 0 002.778 2.777v-2zM16 11.945c0 .43-.348.777-.778.777v2A2.778 2.778 0 0018 11.945h-2zm-.778-9.667c.43 0 .778.348.778.778h2A2.778 2.778 0 0015.222.278v2zm-12.444-2A2.778 2.778 0 000 3.056h2c0-.43.348-.778.778-.778v-2zM.445 4.777L7.46 9.452l1.11-1.664-7.014-4.676-1.11 1.665zm10.096 4.675l7.014-4.675-1.11-1.665-7.014 4.676 1.11 1.664zm-3.082 0a2.778 2.778 0 003.082 0L9.43 7.788a.778.778 0 01-.862 0l-1.11 1.664z"/></symbol><symbol viewBox="0 0 28 22" id="mail--filled" xmlns="http://www.w3.org/2000/svg"><path d="M1.326 3.967a2.825 2.825 0 012.816-2.834h19.715a2.825 2.825 0 012.816 2.834v14.169a2.825 2.825 0 01-2.816 2.833H4.142a2.825 2.825 0 01-2.816-2.833V3.966z"/><path d="M1.883 4.553A1 1 0 10.77 6.213l1.114-1.66zm10.554 8.284l-.557.83.557-.83zm3.125 0l-.557-.83.557.83zM27.23 6.214a1 1 0 00-1.114-1.661l1.114 1.66zM4.143 2.133h19.714v-2H4.142v2zm21.53 1.834v14.169h2V3.966h-2zm-1.816 16.002H4.142v2h19.715v-2zm-21.53-1.833V3.966h-2v14.17h2zm1.816 1.833a1.825 1.825 0 01-1.817-1.833h-2c0 2.111 1.703 3.833 3.817 3.833v-2zm21.53-1.833a1.825 1.825 0 01-1.816 1.833v2c2.113 0 3.816-1.722 3.816-3.833h-2zM23.857 2.133c.997 0 1.816.815 1.816 1.834h2c0-2.112-1.703-3.834-3.816-3.834v2zm-19.715-2C2.03.133.326 1.855.326 3.967h2c0-1.02.82-1.834 1.817-1.834v-2zM.77 6.213l11.111 7.454 1.114-1.66-11.11-7.454L.77 6.213zm15.35 7.454l11.11-7.453-1.114-1.661-11.111 7.454 1.114 1.66zm-4.239 0a3.801 3.801 0 004.239 0l-1.114-1.66a1.802 1.802 0 01-2.01 0l-1.115 1.66z"/></symbol><symbol viewBox="0 0 27 43" id="next" xmlns="http://www.w3.org/2000/svg"><path d="M4.708 43l22.284-21.5L4.708 0 .992 3.585 19.565 21.5.992 39.418 4.708 43z"/></symbol><symbol viewBox="0 0 16 15" id="phone" xmlns="http://www.w3.org/2000/svg"><path d="M1 2.056C1 1.196 1.696.5 2.556.5h2.55c.335 0 .632.214.738.532l1.165 3.495a.778.778 0 01-.39.941l-1.756.878a8.588 8.588 0 004.29 4.29l.879-1.755a.778.778 0 01.941-.39l3.495 1.165a.778.778 0 01.532.738v2.55c0 .86-.696 1.556-1.556 1.556h-.777C6.223 14.5 1 9.277 1 2.833v-.777z"/></symbol><symbol viewBox="0 0 26 43" id="prev" xmlns="http://www.w3.org/2000/svg"><path d="M22.284 0L0 21.5 22.284 43 26 39.417 7.427 21.5 26 3.583 22.284 0z"/></symbol><symbol viewBox="0 0 32 32" id="success" xmlns="http://www.w3.org/2000/svg"><path d="M27 9L13 23l-7-7"/></symbol><symbol viewBox="0 0 24 24" id="up" xmlns="http://www.w3.org/2000/svg"><path d="M4 15l8-8 8 8-2 2-6-6-6 6z" fill-rule="evenodd"/></symbol></svg>