<svg width="34" height="34" fill="none" xmlns="http://www.w3.org/2000/svg"><g clip-path="url(#a)" fill="#E08735"><path d="M34 8.7c0-.4-.3-.6-.7-.6h-3.9V3c0-.4-.3-.7-.7-.7H18.4c-.2 0-.4 0-.5.2L.2 20.2c-.2.2-.2.4-.2.6V31c0 .4.3.7.7.7h20.7c.2 0 .3 0 .5-.2l4.4-4.4a.7.7 0 00-1-1l-3.2 3.3v-3.3l7-7.1a.7.7 0 00-.8-1L22 24.2V21l10.6-10.6v8.5L29.5 22a.7.7 0 001 1l3.3-3.5.2-.4V8.7zm-32.7 18V24a7 7 0 016.5 6.5H4.9a4.3 4.3 0 00-3.6-3.6zm2.3 3.7H1.4V28a3 3 0 012.2 2.3zm-2.3-7.8v-1.3h9v9H9.2a8.5 8.5 0 00-7.8-7.7zm10.4 7.8V25a6 6 0 015.3 5.3h-5.3zm9 0h-2.3a7.4 7.4 0 00-6.7-6.7v-2.4h2c2.7 0 7 3.8 7 7.1v2zm0-5.8c-.8-1.3-2-2.4-3.3-3.3h3.3v3.3zm.4-4.6h-8.5L23.3 9.4H26l-4 4.2a.7.7 0 001 1l5-5.2h3.7L21.1 20zm6.6-12h-3.1L28 4.7V8h-.4zm-9-4.4H27L10.7 20H7.5L18.9 8.5a.7.7 0 10-1-.9L5.7 20H2.3L18.6 3.6z"/><path d="M28.5 24.3a.7.7 0 00-.9-.4c-.3.2-.5.5-.3.9.1.3.5.5.8.3.4-.1.5-.5.4-.8z"/></g><defs><clipPath id="a"><path fill="#fff" d="M0 0h34v34H0z"/></clipPath></defs></svg>