<svg width="31" height="32" fill="none" xmlns="http://www.w3.org/2000/svg"><g clip-path="url(#a)" fill="#E08735"><path d="M14.3 15h-.4v-4c0-.4-.2-.7-.6-.7h-.9a.6.6 0 000 1.3h.3V15h-.3a.6.6 0 000 1.2h1.9a.6.6 0 000-1.2zm3.1 1.4c1 0 1.8-.8 1.8-1.8V12a1.8 1.8 0 00-3.7 0v2.7c0 1 .9 1.8 1.9 1.8zm-.7-4.5a.6.6 0 011.3 0v2.7a.6.6 0 01-1.3 0V12z"/><path d="M29.8 28.2l1.1-2.5a.6.6 0 00-.5-.9H27v-2c0-.4-.3-.7-.6-.7h-3l.1-.8 2-.3a.6.6 0 00.4-.7l-.3-1.9 1.7-.8a.6.6 0 00.3-.9l-1-1.7 1.5-1.3a.6.6 0 000-.9l-1.4-1.3 1-1.7a.6.6 0 00-.4-.8l-1.7-1 .3-1.9a.6.6 0 00-.5-.7l-1.9-.2-.2-2a.6.6 0 00-.8-.5l-1.9.4-.8-1.8a.6.6 0 00-.8-.2l-1.7.9L15.9.7a.6.6 0 00-.8 0L13.7 2 12 1a.6.6 0 00-.8.3l-.8 1.8-2-.4a.6.6 0 00-.7.6l-.2 1.9-2 .2a.6.6 0 00-.4.7l.3 2-1.7.8a.6.6 0 00-.3.8l1 1.7-1.5 1.3a.6.6 0 000 1L4.3 15l-1 1.7a.6.6 0 00.4.9l1.7.8-.3 2a.6.6 0 00.5.6l1.9.3.1.8h-3c-.3 0-.6.3-.6.6v2.1H.6a.6.6 0 00-.5.9l1 2.5-1 2.4a.6.6 0 00.5.9h6.7c.4 0 .6-.3.6-.6v-2.1h15.2v2c0 .4.2.7.6.7h6.7a.6.6 0 00.5-.9l-1-2.4zM5.2 23.3h7.6a.6.6 0 000-1.2h-4l-.2-1.4c0-.3-.2-.5-.5-.6L6.4 20l.3-1.7c0-.3 0-.6-.3-.7l-1.6-.7.8-1.6c.1-.2.1-.5-.1-.7l-1.3-1.2L5.5 12c.2-.2.2-.5.1-.8l-.8-1.5L6.4 9c.2 0 .3-.4.3-.6l-.3-1.8L8 6.4c.3 0 .5-.2.5-.5L9 4l1.7.4c.3 0 .5-.1.7-.4l.7-1.6 1.6.9c.2.1.5 0 .7-.1L15.5 2l1.2 1.3c.2.2.5.2.7 0l1.6-.8.7 1.6c.2.3.4.4.7.4l1.7-.4.3 1.8c0 .3.2.5.5.5l1.7.2-.3 1.8c0 .2 0 .5.3.6l1.6.8-.8 1.5c-.1.3-.1.6.1.8l1.3 1.2-1.3 1.2c-.2.2-.2.5-.1.7l.8 1.6-1.6.7c-.2.1-.3.4-.3.7l.3 1.7-1.7.2c-.3 0-.5.3-.5.6l-.2 1.4h-4a.6.6 0 000 1.2h7.6v4.3H5.2v-4.3zm1.5 7H1.5l.9-1.9V28l-.9-1.8H4v2c0 .4.3.7.6.7h2.1v1.5zm21.9-1.9l.9 1.9h-5.2v-1.5h2.1c.3 0 .6-.3.6-.6V26h2.5l-.9 1.8v.5z"/><path d="M23.7 24.8H7.3a.6.6 0 100 1.3h16.4a.6.6 0 000-1.3zm0-11.5a8.2 8.2 0 10-16.4 0 8.2 8.2 0 0016.4 0zm-15.2 0a7 7 0 1114 0 7 7 0 01-14 0zm7 8.8a.6.6 0 100 1.2.6.6 0 000-1.2z"/></g><defs><clipPath id="a"><path fill="#fff" transform="translate(0 .5)" d="M0 0h31v31H0z"/></clipPath></defs></svg>