<svg width="196" height="42" fill="none" xmlns="http://www.w3.org/2000/svg"><path d="M28.2 21H1.8V0h5.4v16.8h5.1V0h5.4v16.8h5.1V0h5.4v21zM47.4 5.1V21h-5.25V9.15h-5.4V21H31.5V5.1h15.9zm9.296 12c1.06 0 2.26-.2 3.6-.6v-1.8h-4.35c-.3 0-.55.1-.75.3-.2.2-.3.45-.3.75v.3c0 .3.1.55.3.75.2.2.45.3.75.3h.75zm-5.55-11.7c3.66-.4 6.96-.6 9.9-.6 1.36 0 2.45.41 3.27 1.23.82.82 1.23 1.91 1.23 3.27V21h-4.65l-.3-1.5c-.94.62-1.91 1.08-2.91 1.38-.98.28-1.81.42-2.49.42h-1.05c-1.36 0-2.45-.41-3.27-1.23-.82-.82-1.23-1.91-1.23-3.27v-1.35c0-1.36.41-2.45 1.23-3.27.82-.82 1.91-1.23 3.27-1.23h6.15v-1.2c0-.3-.1-.55-.3-.75-.2-.2-.45-.3-.75-.3-1.3 0-2.74.06-4.32.18-1.56.12-2.82.21-3.78.27V5.4zm18.892 15.9c-.86 0-1.86-.1-3-.3v-3.9h1.2c.76 0 1.16-.4 1.2-1.2l.6-10.8h14.4V21h-5.25V9.15h-4.2l-.45 7.65c-.08 1.36-.53 2.45-1.35 3.27-.82.82-1.87 1.23-3.15 1.23zm23.69-4.2c1.06 0 2.26-.2 3.6-.6v-1.8h-4.35c-.3 0-.55.1-.75.3-.2.2-.3.45-.3.75v.3c0 .3.1.55.3.75.2.2.45.3.75.3h.75zm-5.55-11.7c3.66-.4 6.96-.6 9.9-.6 1.36 0 2.45.41 3.27 1.23.82.82 1.23 1.91 1.23 3.27V21h-4.65l-.3-1.5c-.94.62-1.91 1.08-2.91 1.38-.98.28-1.81.42-2.49.42h-1.05c-1.36 0-2.45-.41-3.27-1.23-.82-.82-1.23-1.91-1.23-3.27v-1.35c0-1.36.41-2.45 1.23-3.27.82-.82 1.91-1.23 3.27-1.23h6.15v-1.2c0-.3-.1-.55-.3-.75-.2-.2-.45-.3-.75-.3-1.3 0-2.74.06-4.32.18-1.56.12-2.82.21-3.78.27V5.4z" fill="#fff"/><path d="M104.669 12.6V8.4h12.3v4.2h-12.3z" fill="#E08735"/><path d="M124.701 21.3c-1 0-2.03-.1-3.09-.3v-4.05h2.7c.58 0 .98-.23 1.2-.69.1-.2.15-.41.15-.63 0-.24-.05-.45-.15-.63l-8.25-15h6l5.4 10.65 4.5-10.65h6l-7.65 16.5c-.7 1.58-1.54 2.76-2.52 3.54-1.08.84-2.51 1.26-4.29 1.26zm23.315-12.15c-1.06 0-2.26.2-3.6.6v7.2h4.5c.8 0 1.2-.4 1.2-1.2V10.2c0-.3-.1-.55-.3-.75-.2-.2-.45-.3-.75-.3h-1.05zm-3.6 11.85v5.1h-5.25v-21h4.65l.3 1.5c.94-.62 1.9-1.07 2.88-1.35 1-.3 1.84-.45 2.52-.45h1.35c1.36 0 2.45.41 3.27 1.23.82.82 1.23 1.91 1.23 3.27v6.9c0 1.5-.43 2.68-1.29 3.54-.84.84-2.01 1.26-3.51 1.26h-6.15zm19.946-3.9c1.06 0 2.26-.2 3.6-.6v-1.8h-4.35c-.3 0-.55.1-.75.3-.2.2-.3.45-.3.75v.3c0 .3.1.55.3.75.2.2.45.3.75.3h.75zm-5.55-11.7c3.66-.4 6.96-.6 9.9-.6 1.36 0 2.45.41 3.27 1.23.82.82 1.23 1.91 1.23 3.27V21h-4.65l-.3-1.5c-.94.62-1.91 1.08-2.91 1.38-.98.28-1.81.42-2.49.42h-1.05c-1.36 0-2.45-.41-3.27-1.23-.82-.82-1.23-1.91-1.23-3.27v-1.35c0-1.36.41-2.45 1.23-3.27.82-.82 1.91-1.23 3.27-1.23h6.15v-1.2c0-.3-.1-.55-.3-.75-.2-.2-.45-.3-.75-.3-1.3 0-2.74.06-4.32.18-1.56.12-2.82.21-3.78.27V5.4zm18.892 15.9c-.86 0-1.86-.1-3-.3v-3.9h1.2c.76 0 1.16-.4 1.2-1.2l.6-10.8h14.4V21h-5.25V9.15h-4.2l-.45 7.65c-.08 1.36-.53 2.45-1.35 3.27-.82.82-1.87 1.23-3.15 1.23zM.307 41.114v-3.052h.562c.193-.176.375-.424.546-.745.173-.324.32-.756.439-1.296.122-.542.203-1.231.243-2.066l.187-3.682h5.182v7.79h1.006v3.033H7.466V39H1.312v2.114H.307zm1.824-3.052h4.33V31.21H3.238l-.137 2.745a15.946 15.946 0 01-.179 1.73c-.085.514-.194.97-.328 1.367a4.713 4.713 0 01-.464 1.01zm10.545 1.074c-.63 0-1.174-.139-1.632-.417a2.803 2.803 0 01-1.052-1.177c-.245-.505-.367-1.093-.367-1.764 0-.67.122-1.261.367-1.772a2.89 2.89 0 011.031-1.202c.443-.29.96-.435 1.551-.435.341 0 .678.057 1.01.17.332.114.635.299.908.555.272.252.49.588.652 1.005.162.418.243.932.243 1.543v.426H10.34v-.87h4.023c0-.368-.074-.698-.222-.988a1.67 1.67 0 00-.622-.686 1.742 1.742 0 00-.946-.251c-.4 0-.747.1-1.04.298-.29.196-.512.452-.669.767a2.253 2.253 0 00-.234 1.014v.58c0 .494.085.913.256 1.257.173.34.413.6.72.78.307.176.663.264 1.07.264.264 0 .502-.037.715-.11.216-.078.402-.191.559-.342a1.55 1.55 0 00.362-.57l.971.272c-.102.33-.274.62-.515.87-.242.246-.54.44-.895.579a3.318 3.318 0 01-1.198.204zm4.24 2.319v-9h.972v1.04h.12c.073-.114.175-.26.306-.435a1.79 1.79 0 01.571-.478c.25-.142.588-.213 1.014-.213.552 0 1.037.138 1.458.414.42.275.748.666.984 1.172.236.505.354 1.102.354 1.79 0 .692-.118 1.293-.354 1.802-.236.506-.562.898-.98 1.176-.418.276-.9.413-1.445.413-.42 0-.757-.07-1.01-.209a1.873 1.873 0 01-.583-.481 6.482 6.482 0 01-.316-.452h-.085v3.46h-1.006zm.99-5.728c0 .495.072.93.216 1.308.145.375.357.67.635.883.279.21.62.315 1.023.315.42 0 .771-.11 1.053-.332.284-.225.497-.526.639-.904a3.54 3.54 0 00.217-1.27c0-.46-.07-.875-.213-1.244a1.923 1.923 0 00-.635-.882c-.281-.219-.635-.328-1.06-.328-.41 0-.754.103-1.032.31a1.867 1.867 0 00-.63.861c-.143.367-.214.794-.214 1.283zm9.067 3.409c-.63 0-1.174-.139-1.632-.417a2.803 2.803 0 01-1.052-1.177c-.245-.505-.367-1.093-.367-1.764 0-.67.122-1.261.367-1.772a2.89 2.89 0 011.03-1.202c.444-.29.961-.435 1.552-.435.34 0 .678.057 1.01.17.332.114.635.299.908.555.272.252.49.588.652 1.005.162.418.242.932.242 1.543v.426h-5.045v-.87h4.023c0-.368-.074-.698-.222-.988a1.67 1.67 0 00-.622-.686 1.742 1.742 0 00-.946-.251c-.4 0-.747.1-1.04.298-.29.196-.512.452-.669.767a2.254 2.254 0 00-.234 1.014v.58c0 .494.085.913.255 1.257.174.34.414.6.72.78a2.11 2.11 0 001.07.264c.265 0 .503-.037.716-.11.216-.078.402-.191.558-.342a1.55 1.55 0 00.363-.57l.971.272c-.102.33-.274.62-.515.87-.242.246-.54.44-.895.579a3.319 3.319 0 01-1.198.204zm4.24-.136v-6.545h2.676c.705 0 1.265.159 1.68.477.414.318.622.738.622 1.261 0 .398-.118.706-.354.925-.236.216-.538.362-.908.439.242.034.476.119.703.255.23.137.42.324.571.563.151.236.226.526.226.87 0 .335-.085.634-.255.898a1.75 1.75 0 01-.733.627c-.319.153-.7.23-1.142.23h-3.086zm.955-.92h2.13c.347 0 .618-.083.814-.248.197-.165.294-.389.294-.673 0-.338-.097-.604-.294-.797-.196-.196-.467-.294-.813-.294h-2.131v2.012zm0-2.881h1.721c.27 0 .502-.037.695-.111a.982.982 0 00.443-.324.822.822 0 00.158-.503.742.742 0 00-.345-.648c-.23-.158-.547-.238-.95-.238h-1.722v1.824zM41.89 39v-5.625h-1.74c-.392 0-.7.09-.924.273-.225.181-.337.431-.337.75 0 .312.101.558.303.737.204.179.484.268.84.268h2.113v.938H40.03c-.443 0-.825-.078-1.146-.235a1.715 1.715 0 01-.742-.669c-.173-.292-.26-.639-.26-1.04 0-.403.091-.75.273-1.04a1.77 1.77 0 01.78-.668c.34-.156.746-.234 1.215-.234h2.693V39h-.955zm-4.364 0l1.857-3.256h1.091L38.616 39h-1.09zm11.544-3.733v.938h-3.613v-.938h3.614zm-3.374-2.813V39H44.69v-6.545h1.006zm4.142 0V39h-1.006v-6.545h1.006zm6.217 2.813v.938h-3.614v-.938h3.614zm-3.375-2.813V39h-1.006v-6.545h1.006zm4.142 0V39h-1.006v-6.545h1.006zm2.706 2.37h1.875c.767 0 1.354.194 1.76.584.406.389.61.882.61 1.478 0 .392-.092.749-.273 1.07a1.98 1.98 0 01-.801.763c-.353.187-.785.28-1.296.28h-2.744v-6.544h1.005v5.607h1.739c.398 0 .724-.105.98-.315a1 1 0 00.384-.81c0-.346-.128-.629-.384-.848-.256-.218-.582-.328-.98-.328h-1.875v-.937zM64.812 39v-6.545h1.006V39h-1.006zm5.591.136c-.63 0-1.175-.139-1.632-.417a2.804 2.804 0 01-1.053-1.177c-.244-.505-.366-1.093-.366-1.764 0-.67.122-1.261.366-1.772a2.89 2.89 0 011.032-1.202c.443-.29.96-.435 1.55-.435.342 0 .678.057 1.01.17.333.114.636.299.908.555.273.252.49.588.652 1.005.162.418.243.932.243 1.543v.426h-5.045v-.87h4.023c0-.368-.074-.698-.222-.988a1.67 1.67 0 00-.622-.686 1.741 1.741 0 00-.946-.251c-.4 0-.747.1-1.04.298a1.97 1.97 0 00-.67.767 2.254 2.254 0 00-.233 1.014v.58c0 .494.085.913.255 1.257.174.34.414.6.72.78a2.11 2.11 0 001.07.264 2.2 2.2 0 00.716-.11c.216-.078.402-.191.558-.342a1.55 1.55 0 00.362-.57l.972.272c-.102.33-.274.62-.516.87-.241.246-.54.44-.895.579a3.318 3.318 0 01-1.197.204zm7.615-6.681h1.006v5.607h2.471v-5.607h1.006v5.607h2.472v-5.607h1.005V39h-7.96v-6.545zM87.815 39v-6.545h5.148V39h-1.006v-5.608h-3.136V39h-1.006zm8.91.153a2.66 2.66 0 01-1.129-.234 1.937 1.937 0 01-.805-.686c-.2-.301-.298-.665-.298-1.091 0-.375.073-.679.221-.912.148-.236.345-.42.592-.554.248-.134.52-.233.819-.298a9.96 9.96 0 01.907-.162c.398-.051.72-.09.968-.115.25-.029.431-.075.545-.14.117-.066.175-.18.175-.342v-.034c0-.42-.115-.747-.345-.98-.228-.233-.573-.35-1.036-.35-.48 0-.856.106-1.13.316-.272.21-.464.435-.575.673l-.954-.34c.17-.398.398-.708.682-.93.287-.224.6-.38.937-.468a3.89 3.89 0 011.006-.137c.21 0 .452.026.724.077.276.048.542.15.797.303.259.153.473.384.644.694.17.31.255.724.255 1.244V39H98.72v-.886h-.051a1.77 1.77 0 01-.341.456c-.16.161-.371.3-.635.413-.264.114-.587.17-.968.17zm.154-.903c.398 0 .733-.078 1.005-.234a1.595 1.595 0 00.836-1.385v-.92c-.043.05-.137.097-.281.14-.142.04-.307.075-.495.106a22.444 22.444 0 01-.963.128c-.261.034-.506.09-.733.166a1.263 1.263 0 00-.545.337c-.137.148-.205.35-.205.605 0 .35.13.614.388.793.261.176.592.264.993.264zm4.102.75v-.938h.239a.956.956 0 00.49-.115c.131-.08.236-.217.316-.413.082-.199.144-.474.187-.827.045-.355.078-.806.098-1.355l.119-2.897h4.364V39h-1.006v-5.608h-2.403l-.102 2.335a10.61 10.61 0 01-.145 1.42 3.428 3.428 0 01-.328 1.022 1.5 1.5 0 01-.58.622c-.241.14-.544.209-.908.209h-.341zm8.527-4.176h1.875c.768 0 1.354.194 1.76.584.407.389.61.882.61 1.478 0 .392-.091.749-.273 1.07a1.982 1.982 0 01-.801.763c-.352.187-.784.28-1.296.28h-2.744v-6.544h1.006v5.607h1.738c.398 0 .725-.105.981-.315.255-.21.383-.48.383-.81 0-.346-.128-.629-.383-.848-.256-.218-.583-.328-.981-.328h-1.875v-.937zM114.793 39v-6.545h1.005V39h-1.005zm7.227-1.483l3.153-5.063h1.159V39h-1.005v-5.063L122.19 39h-1.176v-6.545h1.006v5.062zm12.188 1.619c-.591 0-1.109-.14-1.555-.422a2.867 2.867 0 01-1.04-1.18c-.247-.506-.371-1.097-.371-1.773 0-.681.124-1.277.371-1.785.25-.509.597-.904 1.04-1.185.446-.281.964-.422 1.555-.422s1.108.14 1.552.422c.446.281.792.676 1.039 1.185.25.508.375 1.104.375 1.785 0 .676-.125 1.267-.375 1.773-.247.506-.593.9-1.039 1.18-.444.282-.961.422-1.552.422zm0-.903c.449 0 .819-.115 1.108-.345.29-.23.505-.533.644-.908a3.48 3.48 0 00.209-1.219c0-.437-.07-.845-.209-1.223a2.058 2.058 0 00-.644-.916c-.289-.233-.659-.35-1.108-.35-.448 0-.818.117-1.108.35a2.064 2.064 0 00-.643.916 3.515 3.515 0 00-.209 1.223c0 .438.07.844.209 1.219.139.375.354.678.643.908.29.23.66.345 1.108.345zm4.501.767v-6.545h5.148V39h-1.005v-5.608h-3.137V39h-1.006zm9.644.136c-.591 0-1.109-.14-1.555-.422a2.86 2.86 0 01-1.04-1.18c-.247-.506-.371-1.097-.371-1.773 0-.681.124-1.277.371-1.785.25-.509.596-.904 1.04-1.185.446-.281.964-.422 1.555-.422s1.108.14 1.551.422c.446.281.793.676 1.04 1.185.25.508.375 1.104.375 1.785 0 .676-.125 1.267-.375 1.773-.247.506-.594.9-1.04 1.18-.443.282-.96.422-1.551.422zm0-.903c.449 0 .818-.115 1.108-.345.29-.23.504-.533.643-.908.14-.375.209-.781.209-1.219 0-.437-.069-.845-.209-1.223a2.056 2.056 0 00-.643-.916c-.29-.233-.659-.35-1.108-.35-.449 0-.818.117-1.108.35-.29.233-.504.538-.643.916-.14.378-.209.786-.209 1.223 0 .438.069.844.209 1.219.139.375.353.678.643.908.29.23.659.345 1.108.345zm4.501 3.222v-9h.972v1.04h.119a8.18 8.18 0 01.307-.435 1.78 1.78 0 01.571-.478c.25-.142.588-.213 1.014-.213.551 0 1.037.138 1.457.414.421.275.749.666.985 1.172.235.505.353 1.102.353 1.79 0 .692-.118 1.293-.353 1.802-.236.506-.563.898-.98 1.176-.418.276-.9.413-1.445.413-.42 0-.757-.07-1.01-.209a1.879 1.879 0 01-.584-.481 6.602 6.602 0 01-.315-.452h-.085v3.46h-1.006zm.989-5.728c0 .495.072.93.217 1.308.145.375.356.67.635.883.278.21.619.315 1.023.315.42 0 .771-.11 1.052-.332.284-.225.497-.526.639-.904a3.54 3.54 0 00.218-1.27c0-.46-.071-.875-.213-1.244a1.929 1.929 0 00-.635-.882c-.282-.219-.635-.328-1.061-.328-.409 0-.753.103-1.032.31a1.869 1.869 0 00-.63.861c-.142.367-.213.794-.213 1.283zm7.193-.903h1.875c.767 0 1.353.194 1.76.584.406.389.609.882.609 1.478 0 .392-.091.749-.273 1.07a1.97 1.97 0 01-.801.763c-.352.187-.784.28-1.295.28h-2.745v-6.544h1.006v5.607h1.739c.398 0 .724-.105.98-.315a1 1 0 00.383-.81c0-.346-.127-.629-.383-.848-.256-.218-.582-.328-.98-.328h-1.875v-.937zM166.32 39v-6.545h1.006V39h-1.006zm5.608 0v-.972h.256c.363 0 .646-.116.848-.35.201-.232.346-.608.434-1.128.091-.52.152-1.21.183-2.067l.154-4.21h5.318V39h-1.057v-7.79h-3.255l-.137 3.477c-.034.915-.118 1.694-.251 2.336-.134.642-.368 1.132-.703 1.47-.336.338-.824.507-1.466.507h-.324zm14.64-4.722v.938h-3.597v-.938h3.597zm-5.676 1.995h1.091c.093.613.301 1.085.622 1.414.321.33.835.495 1.542.495.5 0 .918-.14 1.253-.422.338-.281.591-.654.759-1.117.17-.463.255-.967.255-1.512v-.972c0-.602-.095-1.132-.285-1.59-.188-.46-.459-.818-.814-1.073-.352-.259-.776-.388-1.27-.388-.432 0-.79.077-1.074.23a1.636 1.636 0 00-.665.66 2.964 2.964 0 00-.323 1.036h-1.091a3.682 3.682 0 01.456-1.483c.25-.435.598-.775 1.044-1.023.448-.25 1-.375 1.653-.375.71 0 1.324.167 1.841.499.517.33.916.794 1.197 1.393.282.597.422 1.296.422 2.097v1.006c0 .8-.139 1.5-.417 2.096-.279.594-.669 1.056-1.172 1.385-.503.327-1.093.49-1.769.49-.693 0-1.27-.125-1.73-.375a2.726 2.726 0 01-1.061-1.023 3.758 3.758 0 01-.464-1.448zm14.92-6V39h-1.057v-7.79h-4.398V39H189.3v-8.727h6.512z" fill="#fff"/></svg>